<svg xmlns="http://www.w3.org/2000/svg" width="880" height="638" viewBox="0 0 880 638" font-family="'Microsoft YaHei','PingFang SC','Noto Sans CJK SC','Segoe UI',sans-serif"><rect width="880" height="638" rx="14" fill="#FFFFFF"/><rect x="0.5" y="0.5" width="879" height="637" rx="14" fill="none" stroke="#E3E5EB"/><text x="28" y="40" font-size="20" font-weight="700" fill="#1F2330">First-candidate accuracy: Zhiyi IME vs word frequency only</text><rect x="28" y="57" width="14" height="14" rx="3" fill="#C5CAD3"/><text x="48" y="68" font-size="13" fill="#6B7180">Word frequency only (no context)</text><rect x="300" y="57" width="14" height="14" rx="3" fill="#6A5AE0"/><text x="320" y="68" font-size="13" fill="#6B7180">Zhiyi IME (context-aware model)</text><text x="28" y="110" font-size="15" font-weight="700" fill="#1F2330">Test sets</text><line x1="28" y1="118" x2="852" y2="118" stroke="#E6E8EE"/><text x="300" y="147.0" font-size="14" text-anchor="end" fill="#1F2330">Chinese · real IME candidates</text><text x="300" y="164.0" font-size="12" text-anchor="end" fill="#6B7180">1898, full / initials / mixed</text><rect x="320" y="132" width="306.7" height="16" rx="4" fill="#C5CAD3"/><text x="634.7" y="145" font-size="13" font-weight="400" fill="#6B7180">62.6%</text><rect x="320" y="152" width="372.4" height="16" rx="4" fill="#6A5AE0"/><text x="700.4" y="165" font-size="13" font-weight="700" fill="#6A5AE0">76.0%</text><text x="852" y="165" font-size="12" text-anchor="end" fill="#6A5AE0">+13.4</text><text x="300" y="201.0" font-size="14" text-anchor="end" fill="#1F2330">Chinese homophones · this sentence</text><text x="300" y="218.0" font-size="12" text-anchor="end" fill="#6B7180">800</text><rect x="320" y="186" width="379.3" height="16" rx="4" fill="#C5CAD3"/><text x="707.3" y="199" font-size="13" font-weight="400" fill="#6B7180">77.4%</text><rect x="320" y="206" width="431.2" height="16" rx="4" fill="#6A5AE0"/><text x="759.2" y="219" font-size="13" font-weight="700" fill="#6A5AE0">88.0%</text><text x="852" y="219" font-size="12" text-anchor="end" fill="#6A5AE0">+10.6</text><text x="300" y="255.0" font-size="14" text-anchor="end" fill="#1F2330">Chinese homophones · + previous one</text><text x="300" y="272.0" font-size="12" text-anchor="end" fill="#6B7180">same 800</text><rect x="320" y="240" width="379.3" height="16" rx="4" fill="#C5CAD3"/><text x="707.3" y="253" font-size="13" font-weight="400" fill="#6B7180">77.4%</text><rect x="320" y="260" width="443.4" height="16" rx="4" fill="#6A5AE0"/><text x="771.5" y="273" font-size="13" font-weight="700" fill="#6A5AE0">90.5%</text><text x="852" y="273" font-size="12" text-anchor="end" fill="#6A5AE0">+13.1</text><text x="300" y="309.0" font-size="14" text-anchor="end" fill="#1F2330">English word completion</text><text x="300" y="326.0" font-size="12" text-anchor="end" fill="#6B7180">840</text><rect x="320" y="294" width="358.7" height="16" rx="4" fill="#C5CAD3"/><text x="686.7" y="307" font-size="13" font-weight="400" fill="#6B7180">73.2%</text><rect x="320" y="314" width="426.3" height="16" rx="4" fill="#6A5AE0"/><text x="754.3" y="327" font-size="13" font-weight="700" fill="#6A5AE0">87.0%</text><text x="852" y="327" font-size="12" text-anchor="end" fill="#6A5AE0">+13.8</text><text x="28" y="374" font-size="15" font-weight="700" fill="#1F2330">Real Chinese candidates · by typing style</text><line x1="28" y1="382" x2="852" y2="382" stroke="#E6E8EE"/><text x="300" y="411.0" font-size="14" text-anchor="end" fill="#1F2330">Full pinyin</text><text x="300" y="428.0" font-size="12" text-anchor="end" fill="#6B7180">xianshi</text><rect x="320" y="396" width="369.5" height="16" rx="4" fill="#C5CAD3"/><text x="697.5" y="409" font-size="13" font-weight="400" fill="#6B7180">75.4%</text><rect x="320" y="416" width="419.4" height="16" rx="4" fill="#6A5AE0"/><text x="747.4" y="429" font-size="13" font-weight="700" fill="#6A5AE0">85.6%</text><text x="852" y="429" font-size="12" text-anchor="end" fill="#6A5AE0">+10.2</text><text x="300" y="465.0" font-size="14" text-anchor="end" fill="#1F2330">Last syllable unfinished</text><text x="300" y="482.0" font-size="12" text-anchor="end" fill="#6B7180">piaol</text><rect x="320" y="450" width="193.6" height="16" rx="4" fill="#C5CAD3"/><text x="521.5" y="463" font-size="13" font-weight="400" fill="#6B7180">39.5%</text><rect x="320" y="470" width="302.8" height="16" rx="4" fill="#6A5AE0"/><text x="630.8" y="483" font-size="13" font-weight="700" fill="#6A5AE0">61.8%</text><text x="852" y="483" font-size="12" text-anchor="end" fill="#6A5AE0">+22.3</text><text x="300" y="519.0" font-size="14" text-anchor="end" fill="#1F2330">Initials</text><text x="300" y="536.0" font-size="12" text-anchor="end" fill="#6B7180">jt</text><rect x="320" y="504" width="76.0" height="16" rx="4" fill="#C5CAD3"/><text x="403.9" y="517" font-size="13" font-weight="400" fill="#6B7180">15.5%</text><rect x="320" y="524" width="178.4" height="16" rx="4" fill="#6A5AE0"/><text x="506.4" y="537" font-size="13" font-weight="700" fill="#6A5AE0">36.4%</text><text x="852" y="537" font-size="12" text-anchor="end" fill="#6A5AE0">+20.9</text><text x="300" y="573.0" font-size="14" text-anchor="end" fill="#1F2330">Full pinyin + initials</text><text x="300" y="590.0" font-size="12" text-anchor="end" fill="#6B7180">wsyige</text><rect x="320" y="558" width="191.1" height="16" rx="4" fill="#C5CAD3"/><text x="519.1" y="571" font-size="13" font-weight="400" fill="#6B7180">39.0%</text><rect x="320" y="578" width="286.6" height="16" rx="4" fill="#6A5AE0"/><text x="614.6" y="591" font-size="13" font-weight="700" fill="#6A5AE0">58.5%</text><text x="852" y="591" font-size="12" text-anchor="end" fill="#6A5AE0">+19.5</text><text x="28" y="616" font-size="12" fill="#6B7180">int8 model on CPU. In the real-candidate set ~13% of the right words are not among the candidates the model compares; both methods count them as wrong.</text></svg>
